<svg width="216" height="86" viewBox="0 0 216 86" fill="none" xmlns="http://www.w3.org/2000/svg"><g clip-path="url(#clip0_812_2)"><path fill-rule="evenodd" clip-rule="evenodd" d="M214.958 51.494c-.36.219-.813.329-1.348.329-1.203.002-2.637-.557-3.628-1.02-14.49-6.834-30.637-16.678-38.531-22.192-.835-.583-1.684-.634-2.344-.63-.663.003-1.476.193-2.087.619l-3.891 3.595c-1.915 2.065-5.027 6.263-5.519 6.95-.285.398-.165.718-.1.838.111.203.245.336.61.274.16-.028 1.986-.39 4.304-.81.973-.176 1.754-.317 1.875-.34 1.835-.344 2.717-.532 2.721-1.045.01-2.845.437-4.147 4.454-4.702 2.251-.312 3.999.325 4.726 1.364.372.537.882 1.448 1.013 1.813.117.334.216.497.728.477 1.939-.086 2.235-.033 3.196 1.196.711.92 2.19 2.832.061 5.295-.489.565-1.272 1.102-2.196 1.695-.668.429-1.165.617-1.852.968-1.339.68-2.83 1.628-3.562 4.305-.737 2.688-.823 5.277-.823 8.922 0 4.485.31 13.47 1.416 18.03.521 2.162.963 4.536.271 5.763-.715 1.265-1.659 1.855-2.974 1.855-2.193.004-3.127-1.382-4.729-4.04-.514-.855-1.339-2.707-1.084-5.493.298-2.818.606-13.825.606-18.348 0-3.79-.198-6.413-.387-7.657-.15-.995-.472-1.444-1.236-1.47 0 0-1.221.084-2.155.196-.691.083-4.496.638-6.033.646-1.537.009-2.52-.314-3.148-1.022-.246-.272-.556-.926-.679-1.195-.071.048-.142.193-.246.406-.512 1.06-1.877 3.88-2.862 5.235-1.701 2.332-3.569 3.619-5.255 3.62-1.562.003-3.145-1.02-3.146-2.98 0-.793.406-1.798 1.01-2.507a782.718 782.718 0 004.385-5.174l.621-.736a760.357 760.357 0 013.908-4.607l2.082-2.421c1.704-1.98 3.89-4.567 4.201-4.94.31-.368.379-.737-.345-1.104-.724-.367-2.307-1.282-3.371-2.732-1.088-1.48-2.086-3.838-2.275-4.342-.46-1.233-.932-1.488-1.496-1.486-.373 0-.826.11-1.352.24-.789.198-1.776.44-3.001.444-.723 0-1.44-.082-2.188-.248-1.797-.407-3.485-2.293-3.615-4.04-.161-1.997.524-2.716 1.289-3.196.814-.51 1.85-.873 2.76-1.193 1.167-.407 2.267-.794 2.376-1.3.202-.938.01-2.191-.638-4.176-.609-1.872-1.157-4.03.027-5.947 1.133-1.815 4.024-3.082 7.037-3.084 1.901-.002 3.606.494 4.928 1.437 1.918 1.366 2.493 3.416 3.047 5.4.074.255.145.509.219.757l.153.528c.932 3.173 1.246 4.028 2.643 3.9a336.57 336.57 0 005.688-.542c2.347-.253 5.518-.67 5.615-.683l.608-.487c2.434-1.982 2.633-2.143 4.747-4.338l.262-.27c1.988-2.06 4.241-4.404 7.079-5a17.313 17.313 0 013.371-.366c2.157-.002 3.779.522 4.69 1.515 1.571 1.726.943 2.69.529 3.324-.365.549-1.323 1.992-1.421 2.153-.158.253-.179.564-.054.776.26.436.943.392 2.865.206 2.658-.256 3.147.6 3.147 1.322 0 .978-.583 1.579-1.45 1.632-4.4.263-8.03.572-10.592 1.807-7.459 3.593-10.802 6.92-10.945 8.76-.052.692.186 1.47 1.335 2.455 12.378 10.576 22.434 16.51 33.147 19.987 2.211.727 2.909 1.3 3.602 3.429.245.734.645 2.536-.794 3.4zm-43.74-35.342c-2.747.055-4.78.34-7.6.862-.823.153-1.134.53-1.027 1.143l.095.54c.392 2.25 1.076 4.096 2.037 4.264 1.179.206 7.364-6.417 7.3-6.725-.087-.03-.301-.093-.805-.084zM141.91 34.209c.083.524-.03.993-.337 1.39-.779 1.006-2.62 1.424-5.341 1.769-9.777 1.249-18.883 2.02-34.042 2.02-4.867 0-9.685.414-17.385 2.428-1.562.409-2.958.816-4.306 1.21-3.303.968-5.912 1.73-8.422 1.73-3.782 0-6.594-.323-8.025-1.888-.862-.946-1.164-2.3-.926-4.136.225-1.693 1.724-3.911 7.589-4.853 1.757-.278 8.25-.83 13.982-1.317 4.162-.353 8.466-.721 8.788-.81.66-.183.759-.331.988-1.003.133-.384.148-1-.079-1.434-2.06-3.862-1.347-6.341-.739-7.474.639-1.19 1.724-1.995 2.903-2.154 2.667-.36 4.859.286 6.474 1.902 2.262 2.259 2.961 5.99 2.873 8.493 0 0 .009.022.053.042.483.249 3.415 1.495 13.522 1.567 3.355.025 6.718-.086 9.655-.183 2.027-.067 3.777-.124 5.125-.124 2.177 0 7.278.274 7.65 2.825zm-92.601 5.01c-4.607 1.408-10.342 3.16-12.128 4.113-1.994 1.068-2.323 1.625-2.735 4.576 0 0-1.004 3.484-.16 11.485.232 2.2.933 4.346 1.38 5.524.657 1.738 1.066 3.555.698 5.147-.368 1.59-1.983 3.449-2.758 4.202-1.195 1.156-2.87 2.397-3.723 2.397a.681.681 0 01-.16-.014c-1.326-.015-2.343-.802-2.521-2.401-.382-3.442-.213-9.89-.27-16.155-.045-5.206-.101-7.242-.231-8.75-.325-3.75-1.041-4.93-3.858-5.376-1.458-.232-4.728-.66-8.572-.991-4.579-.395-8.889-.767-9.486-.94-2.681-.795-4.183-2.893-4.731-6.604-.17-1.188.132-2.246.866-3.064 1.062-1.174 2.871-1.726 5.304-1.521.618.05 1.013.059 1.675.059 3.814 0 10.832-.794 13.631-1.561 3.38-.928 4.547-1.717 4.714-2.752.491-3.044.015-5.92-.332-10.323-.22-2.757-.189-4.451.371-5.467.476-.87 1.322-1.336 2.384-1.336 2.617 0 4.25.579 5.265 1.212 1.799 1.134 2.022 2.445 1.833 4.114-.694 6.165-1.025 9.253-1.195 10.876-.046.429.163.539.487.486 2.536-.42 9.41-1.494 13.399-1.88 4.496-.43 8.011.38 9.921 2.305 1.222 1.229 1.8 2.88 1.719 4.906-.103 2.528-1.702 4.64-4.275 5.65-1.099.43-3.605 1.198-6.512 2.083zm37.211 6.527c1.686-.132 2.886.509 4.037 1.128.762.409 1.484.794 2.301.922.442.07.958.104 1.577.104.645 0 1.311-.038 1.898-.071a25.02 25.02 0 011.346-.053c.668 0 1.009.082 1.179.283.528.63.227 3.102-.235 4.464-1.005 2.97-3.801 4.889-7.119 4.889h-.002a8.107 8.107 0 01-2.886-.526c-5.103-1.981-6.387-6.18-5.647-8.394.549-1.653 1.778-2.602 3.551-2.746zm28.739-.84c5.398.518 7.772 2.678 9.088 4.26 1.127 1.365 1.305 3.257.468 4.942-.763 1.533-2.166 2.489-3.655 2.489-1.328 0-2.517-.045-4.39-.16-1.567-.097-2.493-.742-2.827-1.976-.911-3.484-2.902-4.446-3.972-4.961-1.366-.661-1.911-1.64-1.538-2.763.543-1.636 2.747-2.224 6.826-1.831zm42.356 8.75c1.193.057 1.749.904 2.312 1.68.279.382.482.674.907.968.926.639 1.386 1.15 1.515 1.756.135.639.105 1.187-.45 2.102-.403.665-.803 1.837-1.188 2.97a41.23 41.23 0 01-.756 2.084c-.488 1.194-1.753 2.47-3.827 2.473-.086-.002-.172-.002-.262-.006-1.225-.058-2.399-.734-2.733-2.025a48.23 48.23 0 00-1.035-3.456c-.801-2.376-.919-4.065.202-5.374 1.886-2.22 3.618-3.231 5.315-3.172zm20.629 2.774c.116-.723.243-1.47.695-2.301.393-.721 1.275-1.14 2.481-1.185 1.309-.053 2.838.329 4.09 1.019 1.575.874 2.214 1.97 2.83 3.028.095.193 2.089 4.292 1.866 6.555-.212 2.149-1.834 3.188-3.253 3.244a3.014 3.014 0 01-1.748-.467l-.575-.371c-.848-.551-1.731-1.125-3.033-1.848-2.251-1.25-5.102-3.2-3.892-5.713.33-.69.434-1.308.539-1.961z" fill="#483629"/></g><defs><clipPath id="clip0_812_2"><path fill="#fff" d="M0 0h216v86H0z"/></clipPath></defs></svg>