<svg width="164" height="164" viewBox="0 0 164 164" fill="none" xmlns="http://www.w3.org/2000/svg"><path fill="#E0E0E0" d="M0 0h163.999v164H0z"/><path fill-rule="evenodd" clip-rule="evenodd" d="M132.275 163.983c-23.449.012-26.902.004-50.351.004-23.19 0-26.38.006-49.57-.004-9.47-.003-13.613-3.932-10.086-9.885 7.969-13.442 21.47-41.706 35.25-45.585 1.172-.33 2.768-.059 3.898.489 13.678 6.645 27.293 6.688 41.002.065 1.312-.634 3.222-.762 4.63-.357 13.711 3.936 26.988 32.451 34.911 45.737 3.183 5.338-1.129 9.531-9.684 9.536zm-50.54-63.687c-16.904-.107-30.052-13.558-29.95-30.641.1-16.701 13.78-29.816 30.943-29.664 16.393.146 29.568 13.85 29.473 30.66-.091 16.423-13.786 29.75-30.465 29.645z" fill="#ABABAB"/></svg>