<svg width="43" height="23" viewBox="0 0 43 23" fill="none" xmlns="http://www.w3.org/2000/svg"><g clip-path="url(#clip0_810_1723)"><path fill-rule="evenodd" clip-rule="evenodd" d="M42.085 12.855c-.462.463-1.137.718-1.904.718h-.036c-.807 0-1.482-.256-1.944-.721-.437-.441-.664-1.037-.657-1.725-.007-.695.22-1.291.657-1.732.461-.464 1.136-.72 1.905-.72.843 0 1.522.256 1.984.72.436.441.664 1.037.657 1.726.003.695-.225 1.293-.662 1.734zm-11.965.6c1.044 0 2.071-.144 3.051-.426a.977.977 0 01.271-.043c.297 0 .403.169.436.241.04.09.05.223-.044.324-2.069 2.251-10.578 8.782-18.235 8.782-1.626 0-3.127-.301-4.463-.894-2.702-1.2-3.898-2.355-4.41-4.263-.132-.495-.743-.693-1.588-.966-1.67-.542-4.197-1.36-4.197-5.044 0-3.684 2.526-4.502 4.197-5.043.845-.274 1.456-.472 1.588-.967.511-1.907 1.708-3.062 4.41-4.263 1.336-.593 2.836-.894 4.46-.894 7.66 0 16.17 6.531 18.237 8.782.094.101.084.234.045.325-.033.072-.139.24-.436.24a.986.986 0 01-.272-.042 10.982 10.982 0 00-3.05-.426c-2.783 0-4.966 1.005-4.966 2.288s2.183 2.289 4.966 2.289z" fill="#483629"/></g><defs><clipPath id="clip0_810_1723"><path fill="#fff" d="M0 0h43v23H0z"/></clipPath></defs></svg>