<svg width="96" height="96" viewBox="0 0 96 96" fill="none" xmlns="http://www.w3.org/2000/svg"><g clip-path="url(#clip0_874_2)"><path fill-rule="evenodd" clip-rule="evenodd" d="M43.407 17.323c-1.752 0-2.942.964-3.26 2.232l-.068.277c-.23.925-.495 1.983-.83 3.007H56.86c-.336-1.024-.6-2.082-.83-3.007l-.07-.277c-.318-1.268-1.508-2.232-3.258-2.232h-9.295zm-9.856 4.955a2.68 2.68 0 01-.34.56H18.63a2.758 2.758 0 000 5.518h1.262l6.187 46.393a10.115 10.115 0 0010.027 8.778h23.898c5.071 0 9.355-3.752 10.028-8.778l6.184-46.392h1.263a2.76 2.76 0 000-5.518h-14.58a2.626 2.626 0 01-.34-.561c-.462-.943-.803-2.291-1.246-4.063-1.035-4.14-4.786-6.41-8.61-6.41h-9.295c-3.827 0-7.575 2.27-8.61 6.41-.445 1.772-.785 3.12-1.246 4.063zm-8.092 6.079H70.65L64.562 74.02a4.6 4.6 0 01-4.559 3.99H36.105a4.597 4.597 0 01-4.557-3.99L25.46 28.357zM43.456 40.31a2.758 2.758 0 00-5.516 0v25.747a2.758 2.758 0 105.516 0V40.31zm14.714 0a2.76 2.76 0 00-5.519 0v25.747a2.76 2.76 0 005.52 0V40.31z" fill="#63A378"/></g><defs><clipPath id="clip0_874_2"><path fill="#fff" d="M0 0h96v96H0z"/></clipPath></defs></svg>